<mxfile host="65bd71144e">
    <diagram id="rkYVscgbR1QQwG7J0mFa" name="Page-1">
        <mxGraphModel dx="353" dy="266" grid="1" gridSize="10" guides="1" tooltips="1" connect="1" arrows="1" fold="1" page="1" pageScale="1" pageWidth="1169" pageHeight="827" math="0" shadow="0">
            <root>
                <mxCell id="0"/>
                <mxCell id="1" parent="0"/>
                <mxCell id="2" value="" style="rounded=0;whiteSpace=wrap;html=1;fillColor=#FCFCFC;" parent="1" vertex="1">
                    <mxGeometry width="730" height="670" as="geometry"/>
                </mxCell>
                <mxCell id="3" value="" style="shape=internalStorage;whiteSpace=wrap;html=1;backgroundOutline=1;fillColor=#FCFCFC;strokeColor=#1F1F1F;" parent="1" vertex="1">
                    <mxGeometry x="50" y="50" width="130" height="100" as="geometry"/>
                </mxCell>
                <mxCell id="4" value="PK" style="text;html=1;strokeColor=none;fillColor=none;align=center;verticalAlign=middle;whiteSpace=wrap;rounded=0;fontColor=#000000;" parent="1" vertex="1">
                    <mxGeometry x="50" y="50" width="20" height="20" as="geometry"/>
                </mxCell>
                <mxCell id="5" value="admins" style="text;html=1;strokeColor=none;fillColor=none;align=center;verticalAlign=middle;whiteSpace=wrap;rounded=0;fontColor=#000000;" parent="1" vertex="1">
                    <mxGeometry x="54" y="30" width="30" height="20" as="geometry"/>
                </mxCell>
                <mxCell id="6" value="name" style="text;html=1;strokeColor=none;fillColor=none;align=left;verticalAlign=middle;whiteSpace=wrap;rounded=0;fontColor=#000000;" parent="1" vertex="1">
                    <mxGeometry x="70" y="70" width="110" height="20" as="geometry"/>
                </mxCell>
                <mxCell id="7" value="email" style="text;html=1;strokeColor=none;fillColor=none;align=left;verticalAlign=middle;whiteSpace=wrap;rounded=0;fontColor=#000000;" parent="1" vertex="1">
                    <mxGeometry x="70" y="90" width="110" height="20" as="geometry"/>
                </mxCell>
                <mxCell id="8" value="password" style="text;html=1;strokeColor=none;fillColor=none;align=left;verticalAlign=middle;whiteSpace=wrap;rounded=0;fontColor=#000000;" parent="1" vertex="1">
                    <mxGeometry x="70" y="110" width="110" height="20" as="geometry"/>
                </mxCell>
                <mxCell id="9" value="created_at" style="text;html=1;strokeColor=none;fillColor=none;align=left;verticalAlign=middle;whiteSpace=wrap;rounded=0;fontColor=#000000;" parent="1" vertex="1">
                    <mxGeometry x="70" y="130" width="110" height="20" as="geometry"/>
                </mxCell>
                <mxCell id="11" value="id" style="text;html=1;strokeColor=none;fillColor=none;align=center;verticalAlign=middle;whiteSpace=wrap;rounded=0;fontColor=#000000;" parent="1" vertex="1">
                    <mxGeometry x="70" y="50" width="20" height="20" as="geometry"/>
                </mxCell>
                <mxCell id="12" value="" style="shape=internalStorage;whiteSpace=wrap;html=1;backgroundOutline=1;fillColor=#FCFCFC;strokeColor=#1F1F1F;" parent="1" vertex="1">
                    <mxGeometry x="290" y="50" width="130" height="140" as="geometry"/>
                </mxCell>
                <mxCell id="13" value="PK" style="text;html=1;strokeColor=none;fillColor=none;align=center;verticalAlign=middle;whiteSpace=wrap;rounded=0;fontColor=#000000;" parent="1" vertex="1">
                    <mxGeometry x="290" y="50" width="20" height="20" as="geometry"/>
                </mxCell>
                <mxCell id="14" value="users" style="text;html=1;strokeColor=none;fillColor=none;align=center;verticalAlign=middle;whiteSpace=wrap;rounded=0;fontColor=#000000;" parent="1" vertex="1">
                    <mxGeometry x="294" y="30" width="30" height="20" as="geometry"/>
                </mxCell>
                <mxCell id="15" value="student_id" style="text;html=1;strokeColor=none;fillColor=none;align=left;verticalAlign=middle;whiteSpace=wrap;rounded=0;fontColor=#000000;" parent="1" vertex="1">
                    <mxGeometry x="310" y="70" width="110" height="20" as="geometry"/>
                </mxCell>
                <mxCell id="17" value="name" style="text;html=1;strokeColor=none;fillColor=none;align=left;verticalAlign=middle;whiteSpace=wrap;rounded=0;fontColor=#000000;" parent="1" vertex="1">
                    <mxGeometry x="310" y="110" width="110" height="20" as="geometry"/>
                </mxCell>
                <mxCell id="18" value="email" style="text;html=1;strokeColor=none;fillColor=none;align=left;verticalAlign=middle;whiteSpace=wrap;rounded=0;fontColor=#000000;" parent="1" vertex="1">
                    <mxGeometry x="310" y="130" width="110" height="20" as="geometry"/>
                </mxCell>
                <mxCell id="19" value="id" style="text;html=1;strokeColor=none;fillColor=none;align=center;verticalAlign=middle;whiteSpace=wrap;rounded=0;fontColor=#000000;" parent="1" vertex="1">
                    <mxGeometry x="310" y="50" width="20" height="20" as="geometry"/>
                </mxCell>
                <mxCell id="28" value="password" style="text;html=1;strokeColor=none;fillColor=none;align=left;verticalAlign=middle;whiteSpace=wrap;rounded=0;fontColor=#000000;" parent="1" vertex="1">
                    <mxGeometry x="310" y="150" width="110" height="20" as="geometry"/>
                </mxCell>
                <mxCell id="61" style="edgeStyle=none;html=1;exitX=0.5;exitY=1;exitDx=0;exitDy=0;entryX=0.575;entryY=0;entryDx=0;entryDy=0;entryPerimeter=0;fontColor=#000000;startArrow=ERmandOne;startFill=0;endArrow=ERoneToMany;endFill=0;strokeColor=#000000;" parent="1" source="29" target="31" edge="1">
                    <mxGeometry relative="1" as="geometry"/>
                </mxCell>
                <mxCell id="29" value="created_at" style="text;html=1;strokeColor=none;fillColor=none;align=left;verticalAlign=middle;whiteSpace=wrap;rounded=0;fontColor=#000000;" parent="1" vertex="1">
                    <mxGeometry x="310" y="170" width="110" height="20" as="geometry"/>
                </mxCell>
                <mxCell id="31" value="" style="shape=internalStorage;whiteSpace=wrap;html=1;backgroundOutline=1;fillColor=#FCFCFC;strokeColor=#1F1F1F;" parent="1" vertex="1">
                    <mxGeometry x="290" y="260" width="130" height="140" as="geometry"/>
                </mxCell>
                <mxCell id="32" value="PK" style="text;html=1;strokeColor=none;fillColor=none;align=center;verticalAlign=middle;whiteSpace=wrap;rounded=0;fontColor=#000000;" parent="1" vertex="1">
                    <mxGeometry x="290" y="260" width="20" height="20" as="geometry"/>
                </mxCell>
                <mxCell id="33" value="students" style="text;html=1;strokeColor=none;fillColor=none;align=center;verticalAlign=middle;whiteSpace=wrap;rounded=0;fontColor=#000000;" parent="1" vertex="1">
                    <mxGeometry x="294" y="240" width="30" height="20" as="geometry"/>
                </mxCell>
                <mxCell id="34" value="student_id" style="text;html=1;strokeColor=none;fillColor=none;align=left;verticalAlign=middle;whiteSpace=wrap;rounded=0;fontColor=#000000;" parent="1" vertex="1">
                    <mxGeometry x="310" y="280" width="110" height="20" as="geometry"/>
                </mxCell>
                <mxCell id="36" value="image" style="text;html=1;strokeColor=none;fillColor=none;align=left;verticalAlign=middle;whiteSpace=wrap;rounded=0;fontColor=#000000;" parent="1" vertex="1">
                    <mxGeometry x="310" y="320" width="110" height="20" as="geometry"/>
                </mxCell>
                <mxCell id="37" value="name" style="text;html=1;strokeColor=none;fillColor=none;align=left;verticalAlign=middle;whiteSpace=wrap;rounded=0;fontColor=#000000;" parent="1" vertex="1">
                    <mxGeometry x="310" y="340" width="110" height="20" as="geometry"/>
                </mxCell>
                <mxCell id="38" value="id" style="text;html=1;strokeColor=none;fillColor=none;align=center;verticalAlign=middle;whiteSpace=wrap;rounded=0;fontColor=#000000;" parent="1" vertex="1">
                    <mxGeometry x="310" y="260" width="20" height="20" as="geometry"/>
                </mxCell>
                <mxCell id="39" value="kana" style="text;html=1;strokeColor=none;fillColor=none;align=left;verticalAlign=middle;whiteSpace=wrap;rounded=0;fontColor=#000000;" parent="1" vertex="1">
                    <mxGeometry x="310" y="360" width="110" height="20" as="geometry"/>
                </mxCell>
                <mxCell id="72" style="edgeStyle=none;html=1;exitX=0.5;exitY=1;exitDx=0;exitDy=0;fontColor=#000000;startArrow=ERmandOne;startFill=0;endArrow=ERoneToMany;endFill=0;strokeColor=#000000;entryX=0.5;entryY=0;entryDx=0;entryDy=0;" parent="1" target="41" edge="1">
                    <mxGeometry relative="1" as="geometry">
                        <Array as="points"/>
                        <mxPoint x="322" y="538" as="targetPoint"/>
                        <mxPoint x="360" y="400" as="sourcePoint"/>
                    </mxGeometry>
                </mxCell>
                <mxCell id="40" value="created_at" style="text;html=1;strokeColor=none;fillColor=none;align=left;verticalAlign=middle;whiteSpace=wrap;rounded=0;fontColor=#000000;" parent="1" vertex="1">
                    <mxGeometry x="310" y="380" width="110" height="20" as="geometry"/>
                </mxCell>
                <mxCell id="41" value="" style="shape=internalStorage;whiteSpace=wrap;html=1;backgroundOutline=1;fillColor=#FCFCFC;strokeColor=#1F1F1F;" parent="1" vertex="1">
                    <mxGeometry x="280" y="500" width="140" height="100" as="geometry"/>
                </mxCell>
                <mxCell id="42" value="PK" style="text;html=1;strokeColor=none;fillColor=none;align=center;verticalAlign=middle;whiteSpace=wrap;rounded=0;fontColor=#000000;" parent="1" vertex="1">
                    <mxGeometry x="280" y="500" width="20" height="20" as="geometry"/>
                </mxCell>
                <mxCell id="43" value="attendances" style="text;html=1;strokeColor=none;fillColor=none;align=center;verticalAlign=middle;whiteSpace=wrap;rounded=0;fontColor=#000000;" parent="1" vertex="1">
                    <mxGeometry x="296" y="480" width="30" height="20" as="geometry"/>
                </mxCell>
                <mxCell id="44" value="student_id" style="text;html=1;strokeColor=none;fillColor=none;align=left;verticalAlign=middle;whiteSpace=wrap;rounded=0;fontColor=#000000;" parent="1" vertex="1">
                    <mxGeometry x="300" y="520" width="110" height="20" as="geometry"/>
                </mxCell>
                <mxCell id="45" value="punchIn" style="text;html=1;strokeColor=none;fillColor=none;align=left;verticalAlign=middle;whiteSpace=wrap;rounded=0;fontColor=#000000;" parent="1" vertex="1">
                    <mxGeometry x="300" y="540" width="110" height="20" as="geometry"/>
                </mxCell>
                <mxCell id="46" value="punchOut" style="text;html=1;strokeColor=none;fillColor=none;align=left;verticalAlign=middle;whiteSpace=wrap;rounded=0;fontColor=#000000;" parent="1" vertex="1">
                    <mxGeometry x="300" y="560" width="110" height="20" as="geometry"/>
                </mxCell>
                <mxCell id="48" value="id" style="text;html=1;strokeColor=none;fillColor=none;align=center;verticalAlign=middle;whiteSpace=wrap;rounded=0;fontColor=#000000;" parent="1" vertex="1">
                    <mxGeometry x="300" y="500" width="20" height="20" as="geometry"/>
                </mxCell>
                <mxCell id="50" value="created_at" style="text;html=1;strokeColor=none;fillColor=none;align=left;verticalAlign=middle;whiteSpace=wrap;rounded=0;fontColor=#000000;" parent="1" vertex="1">
                    <mxGeometry x="300" y="580" width="110" height="20" as="geometry"/>
                </mxCell>
                <mxCell id="73" style="edgeStyle=none;html=1;exitX=1;exitY=0.5;exitDx=0;exitDy=0;fontColor=#000000;startArrow=ERmandOne;startFill=0;endArrow=ERoneToMany;endFill=0;strokeColor=#000000;entryX=0;entryY=0.5;entryDx=0;entryDy=0;" edge="1" parent="1" target="74" source="37">
                    <mxGeometry relative="1" as="geometry">
                        <Array as="points">
                            <mxPoint x="460" y="350"/>
                        </Array>
                        <mxPoint x="572" y="338" as="targetPoint"/>
                        <mxPoint x="610" y="200" as="sourcePoint"/>
                    </mxGeometry>
                </mxCell>
                <mxCell id="74" value="" style="shape=internalStorage;whiteSpace=wrap;html=1;backgroundOutline=1;fillColor=#FCFCFC;strokeColor=#1F1F1F;" vertex="1" parent="1">
                    <mxGeometry x="530" y="300" width="140" height="80" as="geometry"/>
                </mxCell>
                <mxCell id="75" value="PK" style="text;html=1;strokeColor=none;fillColor=none;align=center;verticalAlign=middle;whiteSpace=wrap;rounded=0;fontColor=#000000;" vertex="1" parent="1">
                    <mxGeometry x="530" y="300" width="20" height="20" as="geometry"/>
                </mxCell>
                <mxCell id="76" value="absences" style="text;html=1;strokeColor=none;fillColor=none;align=center;verticalAlign=middle;whiteSpace=wrap;rounded=0;fontColor=#000000;" vertex="1" parent="1">
                    <mxGeometry x="546" y="280" width="30" height="20" as="geometry"/>
                </mxCell>
                <mxCell id="77" value="student_id" style="text;html=1;strokeColor=none;fillColor=none;align=left;verticalAlign=middle;whiteSpace=wrap;rounded=0;fontColor=#000000;" vertex="1" parent="1">
                    <mxGeometry x="550" y="320" width="110" height="20" as="geometry"/>
                </mxCell>
                <mxCell id="78" value="submit" style="text;html=1;strokeColor=none;fillColor=none;align=left;verticalAlign=middle;whiteSpace=wrap;rounded=0;fontColor=#000000;" vertex="1" parent="1">
                    <mxGeometry x="550" y="340" width="110" height="20" as="geometry"/>
                </mxCell>
                <mxCell id="80" value="id" style="text;html=1;strokeColor=none;fillColor=none;align=center;verticalAlign=middle;whiteSpace=wrap;rounded=0;fontColor=#000000;" vertex="1" parent="1">
                    <mxGeometry x="550" y="300" width="20" height="20" as="geometry"/>
                </mxCell>
                <mxCell id="81" value="created_at" style="text;html=1;strokeColor=none;fillColor=none;align=left;verticalAlign=middle;whiteSpace=wrap;rounded=0;fontColor=#000000;" vertex="1" parent="1">
                    <mxGeometry x="550" y="360" width="110" height="20" as="geometry"/>
                </mxCell>
            </root>
        </mxGraphModel>
    </diagram>
</mxfile>